IKResults
version=1
nRows=230
nColumns=3
inDegrees=yes

Units are S.I. units (second, meters, Newtons, ...)
If the header above contains a line with 'inDegrees', this indicates whether rotational values are in degrees (yes) or radians (no).

endheader
time	r_shoulder_elev	r_elbow_flex
      0.00000000	     -6.63986882	     34.30443362
      0.00800000	     -6.62832255	     34.30777896
      0.01700000	     -6.61779609	     34.31068154
      0.02500000	     -6.60873272	     34.31365791
      0.03300000	     -6.60026703	     34.31760356
      0.04200000	     -6.59898165	     34.34577679
      0.05000000	     -6.58958122	     34.35026898
      0.05800000	     -6.58940266	     34.38150753
      0.06700000	     -6.57808474	     34.38689796
      0.07500000	     -6.57474738	     34.41507108
      0.08300000	     -6.56166489	     34.42096832
      0.09200000	     -6.55427204	     34.44483206
      0.10000000	     -6.53873453	     34.45093640
      0.10800000	     -6.52350366	     34.45671602
      0.11700000	     -6.50644540	     34.46303144
      0.12500000	     -6.48967765	     34.46869743
      0.13300000	     -6.46526077	     34.45559196
      0.14200000	     -6.44884594	     34.46107808
      0.15000000	     -6.42369036	     34.44509724
      0.15800000	     -6.39928908	     34.43448848
      0.16700000	     -6.37550697	     34.42294396
      0.17500000	     -6.34999321	     34.40864967
      0.18300000	     -6.32185992	     34.39017458
      0.19200000	     -6.29412729	     34.37352253
      0.20000000	     -6.26472340	     34.35338417
      0.20800000	     -6.23479106	     34.33435984
      0.21700000	     -6.20136947	     34.30815990
      0.22500000	     -6.16657196	     34.28022122
      0.23300000	     -6.13080824	     34.25136413
      0.24200000	     -6.09451967	     34.22052225
      0.25000000	     -6.05314693	     34.18270541
      0.25800000	     -6.01304540	     34.14623394
      0.26700000	     -5.96913203	     34.10439846
      0.27500000	     -5.92209501	     34.05726017
      0.28300000	     -5.87570739	     34.00932370
      0.29200000	     -5.82914107	     33.96498787
      0.30000000	     -5.78650902	     33.92668710
      0.30800000	     -5.74643213	     33.89485710
      0.31700000	     -5.70598530	     33.86147675
      0.32500000	     -5.66938043	     33.83606779
      0.33300000	     -5.63230370	     33.80874234
      0.34200000	     -5.59769435	     33.78776703
      0.35000000	     -5.56400081	     33.76654832
      0.35800000	     -5.52939074	     33.74466365
      0.36700000	     -5.49651110	     33.72320899
      0.37500000	     -5.46568994	     33.70622601
      0.38300000	     -5.43498060	     33.68619835
      0.39200000	     -5.40590342	     33.66967781
      0.40000000	     -5.37791483	     33.65095418
      0.40800000	     -5.35064728	     33.63270841
      0.41700000	     -5.32294461	     33.61259409
      0.42500000	     -5.29704464	     33.59530930
      0.43300000	     -5.26980266	     33.57399141
      0.44200000	     -5.24262400	     33.54980921
      0.45000000	     -5.21538015	     33.52542710
      0.45800000	     -5.18911980	     33.50195771
      0.46700000	     -5.16359393	     33.47806258
      0.47500000	     -5.13815150	     33.45217347
      0.48300000	     -5.11490117	     33.42846029
      0.49200000	     -5.09210662	     33.40370430
      0.50000000	     -5.07113604	     33.38313921
      0.50800000	     -5.05232556	     33.36296882
      0.51700000	     -5.03472982	     33.34203598
      0.52500000	     -5.01775817	     33.32317832
      0.53300000	     -5.00119300	     33.30313707
      0.54200000	     -4.98464960	     33.28070954
      0.55000000	     -4.96987517	     33.25964345
      0.55800000	     -4.95395609	     33.23422431
      0.56700000	     -4.93829638	     33.20726301
      0.57500000	     -4.92502505	     33.18056637
      0.58300000	     -4.91219923	     33.15277513
      0.59200000	     -4.89980873	     33.12161118
      0.60000000	     -4.89185694	     33.09509873
      0.60800000	     -4.88482582	     33.06659542
      0.61700000	     -4.87789019	     33.03178545
      0.62500000	     -4.87280236	     33.00072725
      0.63300000	     -4.86873065	     32.96596916
      0.64200000	     -4.86497261	     32.93310247
      0.65000000	     -4.86309367	     32.89887409
      0.65800000	     -4.86116398	     32.86438064
      0.66700000	     -4.85928575	     32.82772017
      0.67500000	     -4.85995492	     32.79470773
      0.68300000	     -4.86322953	     32.76568581
      0.69200000	     -4.86751511	     32.73435866
      0.70000000	     -4.87456545	     32.71057762
      0.70800000	     -4.89009752	     32.70245481
      0.71700000	     -4.89515552	     32.66951927
      0.72500000	     -4.91134719	     32.66236081
      0.73300000	     -4.91636662	     32.62655103
      0.74200000	     -4.92359456	     32.60009944
      0.75000000	     -4.92755127	     32.56737098
      0.75800000	     -4.92837023	     32.53341104
      0.76700000	     -4.92948522	     32.49799591
      0.77500000	     -4.92837379	     32.46213527
      0.78300000	     -4.92807160	     32.42632958
      0.79200000	     -4.92602130	     32.38647134
      0.80000000	     -4.92182849	     32.34432747
      0.80800000	     -4.91795078	     32.30101886
      0.81700000	     -4.91388527	     32.26191712
      0.82500000	     -4.90770811	     32.21822332
      0.83300000	     -4.90465217	     32.18469236
      0.84200000	     -4.89920658	     32.14914852
      0.85000000	     -4.89506279	     32.11744335
      0.85800000	     -4.88960843	     32.08427195
      0.86700000	     -4.88640594	     32.05647822
      0.87500000	     -4.88467898	     32.03427593
      0.88300000	     -4.88240477	     32.01051719
      0.89200000	     -4.87967391	     31.98805453
      0.90000000	     -4.87728404	     31.96722840
      0.90800000	     -4.87380129	     31.94622440
      0.91700000	     -4.86656820	     31.92037708
      0.92500000	     -4.86060899	     31.89944586
      0.93300000	     -4.85379363	     31.87887244
      0.94200000	     -4.84557758	     31.85839147
      0.95000000	     -4.83778764	     31.84137163
      0.95800000	     -4.82919463	     31.82484818
      0.96700000	     -4.82630800	     31.82565158
      0.97500000	     -4.81551629	     31.80970235
      0.98300000	     -4.81232145	     31.81055438
      0.99200000	     -4.80163682	     31.79586959
      1.00000000	     -4.79619952	     31.79749857
      1.00800000	     -4.78965163	     31.79910757
      1.01700000	     -4.77677088	     31.78431089
      1.02500000	     -4.77022406	     31.78676921
      1.03300000	     -4.76296186	     31.78901286
      1.04200000	     -4.75409956	     31.79165025
      1.05000000	     -4.74512532	     31.79410156
      1.05800000	     -4.73539615	     31.79678846
      1.06700000	     -4.71850616	     31.78170077
      1.07500000	     -4.70859129	     31.78497940
      1.08300000	     -4.69781147	     31.78829428
      1.09200000	     -4.68158088	     31.77428798
      1.10000000	     -4.67131745	     31.77750896
      1.10800000	     -4.65455886	     31.76603025
      1.11700000	     -4.64449764	     31.76906030
      1.12500000	     -4.62680687	     31.75441459
      1.13300000	     -4.61678098	     31.75749673
      1.14200000	     -4.59855089	     31.73997338
      1.15000000	     -4.58861665	     31.74309831
      1.15800000	     -4.57169664	     31.72741549
      1.16700000	     -4.56207881	     31.73006268
      1.17500000	     -4.54182100	     31.70701217
      1.18300000	     -4.52516171	     31.69103379
      1.19200000	     -4.50949851	     31.67858760
      1.20000000	     -4.49285840	     31.66317896
      1.20800000	     -4.47546764	     31.64815779
      1.21700000	     -4.45660950	     31.62820010
      1.22500000	     -4.43965145	     31.61178916
      1.23300000	     -4.42175540	     31.59271476
      1.24200000	     -4.40236906	     31.57138665
      1.25000000	     -4.38595645	     31.55684398
      1.25800000	     -4.36788006	     31.53814578
      1.26700000	     -4.35043130	     31.52360024
      1.27500000	     -4.33236730	     31.51009878
      1.28300000	     -4.31562340	     31.49921639
      1.29200000	     -4.29750517	     31.48869134
      1.30000000	     -4.27941638	     31.47816584
      1.30800000	     -4.26081811	     31.46640703
      1.31700000	     -4.24717516	     31.47062710
      1.32500000	     -4.22490987	     31.45076787
      1.33300000	     -4.21117695	     31.45493444
      1.34200000	     -4.18793830	     31.43272767
      1.35000000	     -4.17298838	     31.43761346
      1.35800000	     -4.14831367	     31.41509493
      1.36700000	     -4.13347127	     31.41973892
      1.37500000	     -4.10687909	     31.39472637
      1.38300000	     -4.08656774	     31.38442663
      1.39200000	     -4.07168997	     31.38898531
      1.40000000	     -4.04780935	     31.37138626
      1.40800000	     -4.03335471	     31.37613801
      1.41700000	     -4.01185339	     31.36247528
      1.42500000	     -3.99793671	     31.36739809
      1.43300000	     -3.98386171	     31.37204218
      1.44200000	     -3.96483752	     31.36070756
      1.45000000	     -3.95252023	     31.36495461
      1.45800000	     -3.94019566	     31.36867856
      1.46700000	     -3.92308611	     31.35637432
      1.47500000	     -3.91247195	     31.35972260
      1.48300000	     -3.90211029	     31.36269563
      1.49200000	     -3.88363826	     31.34261975
      1.50000000	     -3.87417355	     31.34543634
      1.50800000	     -3.85655808	     31.32472371
      1.51700000	     -3.84792438	     31.32716068
      1.52500000	     -3.83045293	     31.30445482
      1.53300000	     -3.82279276	     31.30633974
      1.54200000	     -3.80489373	     31.27985281
      1.55000000	     -3.79363963	     31.26657388
      1.55800000	     -3.78252662	     31.25135454
      1.56700000	     -3.77848611	     31.25244565
      1.57500000	     -3.76223030	     31.22455513
      1.58300000	     -3.75991104	     31.22493127
      1.59200000	     -3.74594098	     31.19695204
      1.60000000	     -3.73810218	     31.18057608
      1.60800000	     -3.73204423	     31.16829079
      1.61700000	     -3.72607540	     31.14975802
      1.62500000	     -3.72701223	     31.14889470
      1.63300000	     -3.71682253	     31.11779549
      1.64200000	     -3.71263593	     31.09797114
      1.65000000	     -3.70925080	     31.07928780
      1.65800000	     -3.70566750	     31.05992553
      1.66700000	     -3.70972446	     31.05732702
      1.67500000	     -3.70142178	     31.02348030
      1.68300000	     -3.70657839	     31.02078336
      1.69200000	     -3.70109300	     30.99299103
      1.70000000	     -3.70625883	     30.99011452
      1.70800000	     -3.70094067	     30.96003604
      1.71700000	     -3.70601586	     30.95718569
      1.72500000	     -3.70245859	     30.93060959
      1.73300000	     -3.70749900	     30.92778426
      1.74200000	     -3.70305992	     30.89835823
      1.75000000	     -3.70288167	     30.88028236
      1.75800000	     -3.70904450	     30.87681429
      1.76700000	     -3.70224049	     30.84232752
      1.77500000	     -3.70187885	     30.82269245
      1.78300000	     -3.70175230	     30.80349026
      1.79200000	     -3.69922257	     30.77779440
      1.80000000	     -3.70424064	     30.77481410
      1.80800000	     -3.69659273	     30.73822843
      1.81700000	     -3.69232910	     30.71139358
      1.82500000	     -3.69109120	     30.69253029
      1.83300000	     -3.68807433	     30.67286308
      1.84200000	     -3.68367377	     30.64833919
      1.85000000	     -3.68026516	     30.62923409
      1.85800000	     -3.67777948	     30.61082605
      1.86700000	     -3.68097251	     30.60846589
      1.87500000	     -3.67147334	     30.57550561
      1.88300000	     -3.67396460	     30.57357485
      1.89200000	     -3.66597118	     30.54310008
      1.90000000	     -3.66730411	     30.54117849
      1.90800000	     -3.65626312	     30.50748105
